<?xml version="1.0" encoding="UTF-8"?>
<svg id="Layer_1" data-name="Layer 1" xmlns="http://www.w3.org/2000/svg" xmlns:xlink="http://www.w3.org/1999/xlink" viewBox="0 0 100 100">
  <defs>
    <style>
      .cls-1 {
        fill: #fff;
      }

      .cls-2 {
        fill: #04070e;
        filter: url(#drop-shadow-34);
      }
    </style>
    <filter id="drop-shadow-34" x="0" y="0" width="100" height="100" filterUnits="userSpaceOnUse">
      <feOffset dx="-6" dy="24"/>
      <feGaussianBlur result="blur" stdDeviation="1"/>
      <feFlood flood-color="#04070e" flood-opacity="1"/>
      <feComposite in2="blur" operator="in"/>
      <feComposite in="SourceGraphic"/>
    </filter>
  </defs>
  <path class="cls-2" d="M100,50c0,27.62-22.39,50-50,50S0,77.61,0,50,22.39,0,50,0s50,22.38,50,50Z"/>
  <path class="cls-1" d="M78.95,24.28l-12.65,7.42c6.16,9.57,9.24,18.41,9.24,26.51,0,6.65-1.97,11.98-5.89,15.99-3.94,4.02-9.22,6.02-15.87,6.02-11.11,0-23.72-5.8-37.82-17.39l10.09-9.98c9.66,8.76,18.73,13.13,27.25,13.13,3.08,0,5.21-.57,6.38-1.7,1.18-1.14,1.77-3.25,1.77-6.32,0-6.16-1.87-11.59-5.59-16.29l-9,12.64V19.78l32.11,4.5Z"/>
</svg>